<svg width="199" height="221" viewBox="0 0 199 221" fill="none" xmlns="http://www.w3.org/2000/svg">
<g filter="url(#filter0_d_54_11)">
<path d="M69 111.882C69 105.753 70.326 100.301 72.9781 95.5276C75.6302 90.6949 79.3137 86.9525 84.0285 84.3004C88.8023 81.5894 94.1948 80.2339 100.206 80.2339C107.573 80.2339 113.879 82.1788 119.124 86.0685C124.37 89.9582 127.876 95.2624 129.644 101.981H113.025C111.787 99.3879 110.019 97.4136 107.72 96.058C105.481 94.7025 102.917 94.0248 100.029 94.0248C95.3735 94.0248 91.6017 95.6455 88.7139 98.8869C85.826 102.128 84.3821 106.46 84.3821 111.882C84.3821 117.304 85.826 121.636 88.7139 124.877C91.6017 128.119 95.3735 129.74 100.029 129.74C102.917 129.74 105.481 129.062 107.72 127.706C110.019 126.351 111.787 124.376 113.025 121.783H129.644C127.876 128.502 124.37 133.806 119.124 137.696C113.879 141.527 107.573 143.442 100.206 143.442C94.1948 143.442 88.8023 142.116 84.0285 139.464C79.3137 136.753 75.6302 133.01 72.9781 128.237C70.326 123.463 69 118.011 69 111.882Z" fill="#CDFC51"/>
<path d="M87.0827 69H99.0827V87H87.0827V69Z" fill="#CDFC51"/>
<path d="M104.083 69H116.083V87H104.083V69Z" fill="#CDFC51"/>
<path d="M87.0827 134H99.0827V152H87.0827V134Z" fill="#CDFC51"/>
<path d="M104.083 134H116.083V152H104.083V134Z" fill="#CDFC51"/>
</g>
<defs>
<filter id="filter0_d_54_11" x="0" y="0" width="198.644" height="221" filterUnits="userSpaceOnUse" color-interpolation-filters="sRGB">
<feFlood flood-opacity="0" result="BackgroundImageFix"/>
<feColorMatrix in="SourceAlpha" type="matrix" values="0 0 0 0 0 0 0 0 0 0 0 0 0 0 0 0 0 0 127 0" result="hardAlpha"/>
<feOffset/>
<feGaussianBlur stdDeviation="34.5"/>
<feComposite in2="hardAlpha" operator="out"/>
<feColorMatrix type="matrix" values="0 0 0 0 0.266667 0 0 0 0 1 0 0 0 0 0.25098 0 0 0 0.5 0"/>
<feBlend mode="normal" in2="BackgroundImageFix" result="effect1_dropShadow_54_11"/>
<feBlend mode="normal" in="SourceGraphic" in2="effect1_dropShadow_54_11" result="shape"/>
</filter>
</defs>
</svg>
